<svg width="340" height="270" viewBox="0 0 340 270" fill="none" xmlns="http://www.w3.org/2000/svg">
<path d="M80 10H90V100H110V40H120V30H130V40H140V110H130V120H120V130H90V270H50V185H20V175H10V165H0V65H10V55H20V65H30V155H50V10H60V0H80V10Z" fill="#EEEEEE"/>
<path d="M180 90H190V180H210V120H230V190H220V200H200V210H190V270H160V210H140V200H130V190H120V140H140V180H160V90H170V80H180V90Z" fill="#EEEEEE"/>
<path d="M280 30H290V130H310V70H320V60H330V70H340V140H330V150H320V160H290V270H250V30H260V20H280V30Z" fill="#EEEEEE"/>
</svg>
