<svg width="225" height="222" viewBox="0 0 225 222" fill="none" xmlns="http://www.w3.org/2000/svg">
<rect x="84" y="84" width="4" height="4" fill="#D9D9D9"/>
<rect x="84" y="80" width="4" height="4" fill="#D9D9D9"/>
<rect x="88" y="88" width="4" height="4" fill="#D9D9D9"/>
<rect x="92" y="92" width="4" height="4" fill="#D9D9D9"/>
<rect x="96" y="92" width="4" height="4" fill="#D9D9D9"/>
<rect x="96" y="96" width="4" height="4" fill="#D9D9D9"/>
<rect x="92" y="100" width="4" height="4" fill="#D9D9D9"/>
<rect x="88" y="104" width="4" height="4" fill="#D9D9D9"/>
<rect x="84" y="104" width="4" height="4" fill="#D9D9D9"/>
<rect x="80" y="104" width="4" height="4" fill="#D9D9D9"/>
<rect x="76" y="104" width="4" height="4" fill="#D9D9D9"/>
<rect x="72" y="104" width="4" height="4" fill="#D9D9D9"/>
<rect x="68" y="104" width="4" height="4" fill="#D9D9D9"/>
<rect x="64" y="100" width="4" height="4" fill="#D9D9D9"/>
<rect x="60" y="100" width="4" height="4" fill="#D9D9D9"/>
<rect x="56" y="100" width="4" height="4" fill="#D9D9D9"/>
<rect x="52" y="96" width="4" height="4" fill="#D9D9D9"/>
<rect x="48" y="92" width="4" height="4" fill="#D9D9D9"/>
<rect x="48" y="88" width="4" height="4" fill="#D9D9D9"/>
<rect x="40" y="84" width="4" height="4" fill="#D9D9D9"/>
<rect x="44" y="84" width="4" height="4" fill="#D9D9D9"/>
<rect x="52" y="84" width="4" height="4" fill="#D9D9D9"/>
<rect x="48" y="84" width="4" height="4" fill="#D9D9D9"/>
<rect x="36" y="80" width="4" height="4" fill="#D9D9D9"/>
<rect x="32" y="76" width="4" height="4" fill="#D9D9D9"/>
<rect x="32" y="72" width="4" height="4" fill="#D9D9D9"/>
<rect x="32" y="68" width="4" height="4" fill="#D9D9D9"/>
<rect x="32" y="64" width="4" height="4" fill="#D9D9D9"/>
<rect x="36" y="64" width="4" height="4" fill="#D9D9D9"/>
<rect x="40" y="64" width="4" height="4" fill="#D9D9D9"/>
<rect x="44" y="64" width="4" height="4" fill="#D9D9D9"/>
<rect x="56" y="84" width="4" height="4" fill="#D9D9D9"/>
<rect x="28" y="64" width="4" height="4" fill="#D9D9D9"/>
<rect x="24" y="60" width="4" height="4" fill="#D9D9D9"/>
<rect x="20" y="56" width="4" height="4" fill="#D9D9D9"/>
<rect x="16" y="52" width="4" height="4" fill="#D9D9D9"/>
<rect x="12" y="48" width="4" height="4" fill="#D9D9D9"/>
<rect x="12" y="44" width="4" height="4" fill="#D9D9D9"/>
<rect x="16" y="40" width="4" height="4" fill="#D9D9D9"/>
<rect x="20" y="40" width="4" height="4" fill="#D9D9D9"/>
<rect x="24" y="44" width="4" height="4" fill="#D9D9D9"/>
<rect x="28" y="44" width="4" height="4" fill="#D9D9D9"/>
<rect x="32" y="48" width="4" height="4" fill="#D9D9D9"/>
<rect x="36" y="48" width="4" height="4" fill="#D9D9D9"/>
<rect x="32" y="28" width="4" height="4" fill="#D9D9D9"/>
<rect x="28" y="24" width="4" height="4" fill="#D9D9D9"/>
<rect x="12" y="36" width="4" height="4" fill="#D9D9D9"/>
<rect x="8" y="32" width="4" height="4" fill="#D9D9D9"/>
<rect x="8" y="28" width="4" height="4" fill="#D9D9D9"/>
<rect x="4" y="24" width="4" height="4" fill="#D9D9D9"/>
<rect x="4" y="20" width="4" height="4" fill="#D9D9D9"/>
<rect x="8" y="16" width="4" height="4" fill="#D9D9D9"/>
<rect x="12" y="16" width="4" height="4" fill="#D9D9D9"/>
<rect x="16" y="20" width="4" height="4" fill="#D9D9D9"/>
<rect x="20" y="20" width="4" height="4" fill="#D9D9D9"/>
<rect x="24" y="24" width="4" height="4" fill="#D9D9D9"/>
<rect x="4" y="12" width="4" height="4" fill="#D9D9D9"/>
<rect y="8" width="4" height="4" fill="#D9D9D9"/>
<rect y="4" width="4" height="4" fill="#D9D9D9"/>
<rect x="4" width="4" height="4" fill="#D9D9D9"/>
<rect x="4" width="4" height="4" fill="#D9D9D9"/>
<rect x="8" width="4" height="4" fill="#D9D9D9"/>
<rect x="8" width="4" height="4" fill="#D9D9D9"/>
<rect x="12" width="4" height="4" fill="#D9D9D9"/>
<rect x="12" width="4" height="4" fill="#D9D9D9"/>
<rect x="16" width="4" height="4" fill="#D9D9D9"/>
<rect x="16" width="4" height="4" fill="#D9D9D9"/>
<rect x="20" width="4" height="4" fill="#D9D9D9"/>
<rect x="20" width="4" height="4" fill="#D9D9D9"/>
<rect x="24" width="4" height="4" fill="#D9D9D9"/>
<rect x="24" width="4" height="4" fill="#D9D9D9"/>
<rect x="28" y="4" width="4" height="4" fill="#D9D9D9"/>
<rect x="32" y="4" width="4" height="4" fill="#D9D9D9"/>
<rect x="36" y="4" width="4" height="4" fill="#D9D9D9"/>
<rect x="40" y="8" width="4" height="4" fill="#D9D9D9"/>
<rect x="44" y="8" width="4" height="4" fill="#D9D9D9"/>
<rect x="48" y="8" width="4" height="4" fill="#D9D9D9"/>
<rect x="52" y="8" width="4" height="4" fill="#D9D9D9"/>
<rect x="56" y="12" width="4" height="4" fill="#D9D9D9"/>
<rect x="60" y="12" width="4" height="4" fill="#D9D9D9"/>
<rect x="64" y="12" width="4" height="4" fill="#D9D9D9"/>
<rect x="68" y="12" width="4" height="4" fill="#D9D9D9"/>
<rect x="72" y="16" width="4" height="4" fill="#D9D9D9"/>
<rect x="76" y="20" width="4" height="4" fill="#D9D9D9"/>
<rect x="80" y="24" width="4" height="4" fill="#D9D9D9"/>
<rect x="80" y="28" width="4" height="4" fill="#D9D9D9"/>
<rect x="80" y="32" width="4" height="4" fill="#D9D9D9"/>
<rect x="76" y="36" width="4" height="4" fill="#D9D9D9"/>
<rect x="76" y="40" width="4" height="4" fill="#D9D9D9"/>
<rect x="72" y="44" width="4" height="4" fill="#D9D9D9"/>
<rect x="72" y="48" width="4" height="4" fill="#D9D9D9"/>
<rect x="76" y="52" width="4" height="4" fill="#D9D9D9"/>
<rect x="76" y="56" width="4" height="4" fill="#D9D9D9"/>
<rect x="80" y="60" width="4" height="4" fill="#D9D9D9"/>
<rect x="84" y="60" width="4" height="4" fill="#D9D9D9"/>
<rect x="88" y="64" width="4" height="4" fill="#D9D9D9"/>
<rect x="92" y="64" width="4" height="4" fill="#D9D9D9"/>
<rect x="96" y="64" width="4" height="4" fill="#D9D9D9"/>
<rect x="100" y="64" width="4" height="4" fill="#D9D9D9"/>
<rect x="104" y="68" width="4" height="4" fill="#D9D9D9"/>
<rect x="108" y="72" width="4" height="4" fill="#D9D9D9"/>
<rect x="108" y="76" width="4" height="4" fill="#D9D9D9"/>
<rect x="108" y="80" width="4" height="4" fill="#D9D9D9"/>
<rect x="108" y="84" width="4" height="4" fill="#D9D9D9"/>
<rect x="104" y="88" width="4" height="4" fill="#D9D9D9"/>
<rect x="100" y="92" width="4" height="4" fill="#D9D9D9"/>
<rect x="115" y="82" width="10" height="10" fill="#D9D9D9"/>
<rect x="125" y="82" width="10" height="10" fill="#D9D9D9"/>
<rect x="125" y="72" width="10" height="10" fill="#D9D9D9"/>
<rect x="125" y="62" width="10" height="10" fill="#D9D9D9"/>
<rect x="125" y="52" width="10" height="10" fill="#D9D9D9"/>
<rect x="125" y="42" width="10" height="10" fill="#D9D9D9"/>
<rect x="125" y="32" width="10" height="10" fill="#D9D9D9"/>
<rect x="125" y="22" width="10" height="10" fill="#D9D9D9"/>
<rect x="135" y="22" width="10" height="10" fill="#D9D9D9"/>
<rect x="135" y="12" width="10" height="10" fill="#D9D9D9"/>
<rect x="145" y="12" width="10" height="10" fill="#D9D9D9"/>
<rect x="155" y="12" width="10" height="10" fill="#D9D9D9"/>
<rect x="165" y="12" width="10" height="10" fill="#D9D9D9"/>
<rect x="175" y="12" width="10" height="10" fill="#D9D9D9"/>
<rect x="185" y="12" width="10" height="10" fill="#D9D9D9"/>
<rect x="195" y="12" width="10" height="10" fill="#D9D9D9"/>
<rect x="195" y="22" width="10" height="10" fill="#D9D9D9"/>
<rect x="205" y="22" width="10" height="10" fill="#D9D9D9"/>
<rect x="205" y="12" width="10" height="10" fill="#D9D9D9"/>
<rect x="215" y="22" width="10" height="10" fill="#D9D9D9"/>
<rect x="205" y="32" width="10" height="10" fill="#D9D9D9"/>
<rect x="215" y="32" width="10" height="10" fill="#D9D9D9"/>
<rect x="205" y="42" width="10" height="10" fill="#D9D9D9"/>
<rect x="215" y="42" width="10" height="10" fill="#D9D9D9"/>
<rect x="205" y="52" width="10" height="10" fill="#D9D9D9"/>
<rect x="215" y="52" width="10" height="10" fill="#D9D9D9"/>
<rect x="195" y="52" width="10" height="10" fill="#D9D9D9"/>
<rect x="185" y="52" width="10" height="10" fill="#D9D9D9"/>
<rect x="175" y="52" width="10" height="10" fill="#D9D9D9"/>
<rect x="165" y="52" width="10" height="10" fill="#D9D9D9"/>
<rect x="155" y="52" width="10" height="10" fill="#D9D9D9"/>
<rect x="165" y="62" width="10" height="10" fill="#D9D9D9"/>
<rect x="155" y="62" width="10" height="10" fill="#D9D9D9"/>
<rect x="165" y="72" width="10" height="10" fill="#D9D9D9"/>
<rect x="155" y="72" width="10" height="10" fill="#D9D9D9"/>
<rect x="155" y="82" width="10" height="10" fill="#D9D9D9"/>
<rect x="155" y="92" width="10" height="10" fill="#D9D9D9"/>
<rect x="155" y="102" width="10" height="10" fill="#D9D9D9"/>
<rect x="155" y="112" width="10" height="10" fill="#D9D9D9"/>
<rect x="155" y="122" width="10" height="10" fill="#D9D9D9"/>
<rect x="155" y="132" width="10" height="10" fill="#D9D9D9"/>
<rect x="145" y="142" width="10" height="10" fill="#D9D9D9"/>
<rect x="145" y="132" width="10" height="10" fill="#D9D9D9"/>
<rect x="145" y="122" width="10" height="10" fill="#D9D9D9"/>
<rect x="145" y="112" width="10" height="10" fill="#D9D9D9"/>
<rect x="145" y="102" width="10" height="10" fill="#D9D9D9"/>
<rect x="145" y="92" width="10" height="10" fill="#D9D9D9"/>
<rect x="145" y="82" width="10" height="10" fill="#D9D9D9"/>
<rect x="145" y="72" width="10" height="10" fill="#D9D9D9"/>
<rect x="145" y="62" width="10" height="10" fill="#D9D9D9"/>
<rect x="145" y="52" width="10" height="10" fill="#D9D9D9"/>
<rect x="145" y="42" width="10" height="10" fill="#D9D9D9"/>
<rect x="175" y="42" width="10" height="10" fill="#D9D9D9"/>
<rect x="185" y="42" width="10" height="10" fill="#D9D9D9"/>
<rect x="195" y="42" width="10" height="10" fill="#D9D9D9"/>
<rect x="155" y="22" width="10" height="10" fill="#D9D9D9"/>
<rect x="155" y="32" width="10" height="10" fill="#D9D9D9"/>
<rect x="145" y="32" width="10" height="10" fill="#D9D9D9"/>
<rect x="155" y="42" width="10" height="10" fill="#D9D9D9"/>
<rect x="165" y="22" width="10" height="10" fill="#D9D9D9"/>
<rect x="165" y="32" width="10" height="10" fill="#D9D9D9"/>
<rect x="165" y="42" width="10" height="10" fill="#D9D9D9"/>
<rect x="175" y="32" width="10" height="10" fill="#D9D9D9"/>
<rect x="175" y="22" width="10" height="10" fill="#D9D9D9"/>
<rect x="185" y="32" width="10" height="10" fill="#D9D9D9"/>
<rect x="185" y="22" width="10" height="10" fill="#D9D9D9"/>
<rect x="195" y="32" width="10" height="10" fill="#D9D9D9"/>
<rect x="145" y="152" width="10" height="10" fill="#D9D9D9"/>
<rect x="135" y="152" width="10" height="10" fill="#D9D9D9"/>
<rect x="135" y="162" width="10" height="10" fill="#D9D9D9"/>
<rect x="125" y="162" width="10" height="10" fill="#D9D9D9"/>
<rect x="125" y="172" width="10" height="10" fill="#D9D9D9"/>
<rect x="125" y="182" width="10" height="10" fill="#D9D9D9"/>
<rect x="125" y="192" width="10" height="10" fill="#D9D9D9"/>
<rect x="125" y="202" width="10" height="10" fill="#D9D9D9"/>
<rect x="125" y="212" width="10" height="10" fill="#D9D9D9"/>
<rect x="135" y="212" width="10" height="10" fill="#D9D9D9"/>
<rect x="115" y="182" width="10" height="10" fill="#D9D9D9"/>
<rect x="105" y="172" width="10" height="10" fill="#D9D9D9"/>
<rect x="95" y="182" width="10" height="10" fill="#D9D9D9"/>
<rect x="75" y="192" width="10" height="10" fill="#D9D9D9"/>
<rect x="85" y="192" width="10" height="10" fill="#D9D9D9"/>
<rect x="85" y="182" width="10" height="10" fill="#D9D9D9"/>
<rect x="75" y="172" width="10" height="10" fill="#D9D9D9"/>
<rect x="75" y="182" width="10" height="10" fill="#D9D9D9"/>
<rect x="55" y="162" width="10" height="10" fill="#D9D9D9"/>
<rect x="65" y="162" width="10" height="10" fill="#D9D9D9"/>
<rect x="65" y="172" width="10" height="10" fill="#D9D9D9"/>
<rect x="45" y="152" width="10" height="10" fill="#D9D9D9"/>
<rect x="35" y="142" width="10" height="10" fill="#D9D9D9"/>
<rect x="35" y="132" width="10" height="10" fill="#D9D9D9"/>
<rect x="75" y="202" width="10" height="10" fill="#D9D9D9"/>
<rect x="75" y="212" width="10" height="10" fill="#D9D9D9"/>
<rect x="85" y="212" width="10" height="10" fill="#D9D9D9"/>
<rect x="165" y="102" width="10" height="10" fill="#D9D9D9"/>
<rect x="175" y="102" width="10" height="10" fill="#D9D9D9"/>
<rect x="175" y="112" width="10" height="10" fill="#D9D9D9"/>
<rect x="175" y="72" width="10" height="10" fill="#D9D9D9"/>
<rect x="185" y="72" width="10" height="10" fill="#D9D9D9"/>
<rect x="195" y="72" width="10" height="10" fill="#D9D9D9"/>
<rect x="115" y="92" width="10" height="10" fill="#D9D9D9"/>
<rect x="105" y="92" width="10" height="10" fill="#D9D9D9"/>
<rect x="95" y="92" width="10" height="10" fill="#D9D9D9"/>
<rect x="105" y="102" width="10" height="10" fill="#D9D9D9"/>
<rect x="95" y="102" width="10" height="10" fill="#D9D9D9"/>
<rect x="85" y="102" width="10" height="10" fill="#D9D9D9"/>
<rect x="95" y="112" width="10" height="10" fill="#D9D9D9"/>
<rect x="85" y="112" width="10" height="10" fill="#D9D9D9"/>
<rect x="75" y="112" width="10" height="10" fill="#D9D9D9"/>
<rect x="85" y="122" width="10" height="10" fill="#D9D9D9"/>
<rect x="75" y="122" width="10" height="10" fill="#D9D9D9"/>
<rect x="55" y="122" width="10" height="10" fill="#D9D9D9"/>
<rect x="65" y="122" width="10" height="10" fill="#D9D9D9"/>
<rect x="45" y="112" width="10" height="10" fill="#D9D9D9"/>
<rect x="35" y="102" width="10" height="10" fill="#D9D9D9"/>
<rect x="15" y="102" width="10" height="10" fill="#D9D9D9"/>
<rect x="25" y="112" width="10" height="10" fill="#D9D9D9"/>
<rect x="25" y="102" width="10" height="10" fill="#D9D9D9"/>
<rect x="35" y="112" width="10" height="10" fill="#D9D9D9"/>
<rect x="45" y="122" width="10" height="10" fill="#D9D9D9"/>
<rect x="55" y="142" width="10" height="10" fill="#D9D9D9"/>
<rect x="65" y="142" width="10" height="10" fill="#D9D9D9"/>
<rect x="55" y="132" width="10" height="10" fill="#D9D9D9"/>
<rect x="65" y="132" width="10" height="10" fill="#D9D9D9"/>
<rect x="75" y="142" width="10" height="10" fill="#D9D9D9"/>
<rect x="75" y="132" width="10" height="10" fill="#D9D9D9"/>
<rect x="85" y="142" width="10" height="10" fill="#D9D9D9"/>
<rect x="85" y="132" width="10" height="10" fill="#D9D9D9"/>
<rect x="85" y="152" width="10" height="10" fill="#D9D9D9"/>
<rect x="95" y="142" width="10" height="10" fill="#D9D9D9"/>
<rect x="95" y="132" width="10" height="10" fill="#D9D9D9"/>
<rect x="95" y="122" width="10" height="10" fill="#D9D9D9"/>
<rect x="95" y="152" width="10" height="10" fill="#D9D9D9"/>
<rect x="95" y="162" width="10" height="10" fill="#D9D9D9"/>
<rect x="105" y="142" width="10" height="10" fill="#D9D9D9"/>
<rect x="105" y="132" width="10" height="10" fill="#D9D9D9"/>
<rect x="105" y="122" width="10" height="10" fill="#D9D9D9"/>
<rect x="105" y="112" width="10" height="10" fill="#D9D9D9"/>
<rect x="105" y="152" width="10" height="10" fill="#D9D9D9"/>
<rect x="105" y="162" width="10" height="10" fill="#D9D9D9"/>
<rect x="115" y="142" width="10" height="10" fill="#D9D9D9"/>
<rect x="115" y="132" width="10" height="10" fill="#D9D9D9"/>
<rect x="115" y="122" width="10" height="10" fill="#D9D9D9"/>
<rect x="115" y="112" width="10" height="10" fill="#D9D9D9"/>
<rect x="115" y="102" width="10" height="10" fill="#D9D9D9"/>
<rect x="115" y="172" width="10" height="10" fill="#D9D9D9"/>
<rect x="115" y="152" width="10" height="10" fill="#D9D9D9"/>
<rect x="115" y="162" width="10" height="10" fill="#D9D9D9"/>
<rect x="125" y="142" width="10" height="10" fill="#D9D9D9"/>
<rect x="125" y="132" width="10" height="10" fill="#D9D9D9"/>
<rect x="125" y="122" width="10" height="10" fill="#D9D9D9"/>
<rect x="125" y="112" width="10" height="10" fill="#D9D9D9"/>
<rect x="125" y="102" width="10" height="10" fill="#D9D9D9"/>
<rect x="125" y="92" width="10" height="10" fill="#D9D9D9"/>
<rect x="125" y="152" width="10" height="10" fill="#D9D9D9"/>
<rect x="135" y="142" width="10" height="10" fill="#D9D9D9"/>
<rect x="135" y="132" width="10" height="10" fill="#D9D9D9"/>
<rect x="135" y="122" width="10" height="10" fill="#D9D9D9"/>
<rect x="135" y="112" width="10" height="10" fill="#D9D9D9"/>
<rect x="135" y="102" width="10" height="10" fill="#D9D9D9"/>
<rect x="135" y="92" width="10" height="10" fill="#D9D9D9"/>
<rect x="135" y="82" width="10" height="10" fill="#D9D9D9"/>
<rect x="135" y="72" width="10" height="10" fill="#D9D9D9"/>
<rect x="135" y="62" width="10" height="10" fill="#D9D9D9"/>
<rect x="135" y="52" width="10" height="10" fill="#D9D9D9"/>
<rect x="135" y="42" width="10" height="10" fill="#D9D9D9"/>
<rect x="135" y="32" width="10" height="10" fill="#D9D9D9"/>
<rect x="75" y="152" width="10" height="10" fill="#D9D9D9"/>
<rect x="85" y="162" width="10" height="10" fill="#D9D9D9"/>
<rect x="85" y="172" width="10" height="10" fill="#D9D9D9"/>
<rect x="75" y="162" width="10" height="10" fill="#D9D9D9"/>
<rect x="55" y="152" width="10" height="10" fill="#D9D9D9"/>
<rect x="65" y="152" width="10" height="10" fill="#D9D9D9"/>
<rect x="45" y="142" width="10" height="10" fill="#D9D9D9"/>
<rect x="45" y="132" width="10" height="10" fill="#D9D9D9"/>
<rect x="35" y="122" width="10" height="10" fill="#D9D9D9"/>
<rect x="95" y="172" width="10" height="10" fill="#D9D9D9"/>
<rect x="25" y="122" width="10" height="10" fill="#D9D9D9"/>
</svg>
