<svg width="812" height="49" viewBox="0 0 812 49" fill="none" xmlns="http://www.w3.org/2000/svg">
<path d="M350 49H0V42H350V49Z" fill="#D9D9D9"/>
<path d="M812 42V49H413V42H812Z" fill="#D9D9D9"/>
<path d="M364 42H350V35H364V42Z" fill="#D9D9D9"/>
<path d="M413 42H399V35H413V42Z" fill="#D9D9D9"/>
<path d="M371 35H364V28H371V35Z" fill="#D9D9D9"/>
<path d="M399 35H392V28H399V35Z" fill="#D9D9D9"/>
<path d="M420 35H413V14H420V35Z" fill="#D9D9D9"/>
<path d="M378 28H371V14H378V28Z" fill="#D9D9D9"/>
<path d="M406 28H399V21H406V28Z" fill="#D9D9D9"/>
<path d="M385 14H378V7H385V14Z" fill="#D9D9D9"/>
<path d="M413 14H406V7H413V14Z" fill="#D9D9D9"/>
<path d="M406 7H385V0H406V7Z" fill="#D9D9D9"/>
</svg>
