<svg width="1112" height="49" viewBox="0 0 1112 49" fill="none" xmlns="http://www.w3.org/2000/svg">
<path d="M530 49H0V42H530V49Z" fill="#D9D9D9"/>
<path d="M1112 42V49H593V42H1112Z" fill="#D9D9D9"/>
<path d="M544 42H530V35H544V42Z" fill="#D9D9D9"/>
<path d="M593 42H579V35H593V42Z" fill="#D9D9D9"/>
<path d="M551 35H544V28H551V35Z" fill="#D9D9D9"/>
<path d="M579 35H572V28H579V35Z" fill="#D9D9D9"/>
<path d="M600 35H593V14H600V35Z" fill="#D9D9D9"/>
<path d="M558 28H551V14H558V28Z" fill="#D9D9D9"/>
<path d="M586 28H579V21H586V28Z" fill="#D9D9D9"/>
<path d="M565 14H558V7H565V14Z" fill="#D9D9D9"/>
<path d="M593 14H586V7H593V14Z" fill="#D9D9D9"/>
<path d="M586 7H565V0H586V7Z" fill="#D9D9D9"/>
</svg>
